<?xml version="1.0" encoding="utf-8"?>
<!-- Generator: Adobe Illustrator 15.0.2, SVG Export Plug-In . SVG Version: 6.00 Build 0)  -->
<!DOCTYPE svg PUBLIC "-//W3C//DTD SVG 1.1//EN" "http://www.w3.org/Graphics/SVG/1.1/DTD/svg11.dtd">
<svg version="1.1" xmlns="http://www.w3.org/2000/svg" xmlns:xlink="http://www.w3.org/1999/xlink" x="0px" y="0px" width="1024px"
	 height="1024px" viewBox="0 0 1024 1024" enable-background="new 0 0 1024 1024" xml:space="preserve">
<g id="minimal">
	<text transform="matrix(1 0 0 1 56 793)" font-family="'Marion-Regular'" font-size="422">miniminiminimalism</text>
</g>
<g id="dots">
	<path d="M347.363,473.087c-1.922-2.281-7.395-3.926-8.447-6.64c-2.181-5.624,5.117-10.393,8.417-13.158
		c-8.848-6.347-23.495-7.168-33.832-7.301c-4.146-0.053-10.774,2.051-14,4.615c-2.191,1.742-5.579,6.392-6.634,8.945
		c-1.208,2.924-0.821,3.67,0.354,7.503c1.904,6.206,2.735,16.455-1.657,21.847c8.476,3.849,15.025,11.764,23.463,14.102
		c5.222,1.446,10.706,2.548,15.994-0.137c5.474-2.777,9.26-8.997,14.979-11.363l2.5-3
		C349.192,482.4,352.021,478.616,347.363,473.087z"/>
	<path d="M375,526.5v1.5c-1.62-7.459-14.43-6.728-15,1C359.239,539.315,376.443,536.851,375,526.5z"/>
	<g>
		<path fill="#020202" d="M403.498,409.002c-0.055-8.573-3.231-16.29-9.866-20.585c1.28-1.72,2.948-3.178,4.334-5.53
			c-2.23,1.36-4.06,3.219-6.471,4.328c-1.407-0.683-2.927-1.248-4.594-1.641c-6.782-1.601-12.177-2.426-18.594-5.619
			c-4.359-2.169-7.952-2.443-12.753-0.942c-1.108,0.347-2.235,0.8-3.355,1.333c-0.365-1.206-0.713-2.442-1.05-3.747
			c-1.31-5.077-8.654-12.317-4.822-17.516c-2.262-1.067-4.996-2.384-7.558-2.833c2.706-3.222,1.975-7.848,5.241-9.684
			c2.464-1.385,8.456-0.037,11.392-0.199c0.544-4.84-10.239-1.701-4.593-9.351c1.864-2.526,5.589-3.819,7.729-5.85
			c1.222-1.16,3.506-3.68,4.922-5.284c-3.124-2.119-7.066-5.104-6.068-9.391c-0.695,0.056-1.581-0.176-2.251-0.145
			c0.594-3.127,6.197-7.073,10.6-9.151c-4.047,1.497-9.17,3.238-11.772,1.732c1.74-4.322,14.744-6.933,19.313-9.351
			c7.896-4.179,17.27-7.932,25.801-11.13c-5.151,1.578-11.395,2.428-16.742,3.225c-4.057,0.604-7.975-0.092-12.077,0.874
			c-5.138,1.209-9.042,2.491-14.437,2.275c-8.34-0.334-5.665-1.708-8.329-7.467c-1.722-3.724-6.339-5.629-9.932-6.929
			c-6.591-2.384-18.86-5.582-25.583-2.485c-1.458,0.672-2.206,2.872-3.505,3.691c-1.884,1.189-3.341,0.154-5.252,1.654
			c-2.315,1.816-2.224,5.047-5.71,5.251c-1.642,0.096-4.851-2.791-6.961-2.848c0.445,6.711-0.031,14.406-0.492,21.115
			c-0.38-0.657-1.511-1.392-1.928-1.958c-4.857,5.123-12.257-4.277-17.823-3.114c23.586,7.542,4.957,17.877,11.943,32.071
			c2.855,5.801,9.114,9.073,14.07,12.209c4.396,2.783,5.833,6.768,9.252,9.957c1.414,1.318,1.14,2.769,3.981,2.131
			c0.146,2.365,0.008,4.854,0.187,7.22c1.594-5.653,7.969-2.051,12.513-2.012c4.967,0.043,11.385-2.916,15.805-1.024
			c4.331,1.853,5.802,8.384,7.498,12.967c1.352,3.653,1.521,6.149,1.165,8.464c-4.676,3.627-8.342,8.696-8.616,14.212
			c-0.509,10.24,0.405,23.906,8.353,31.159c7.541,6.881,19.433,10.88,29.903,9.336c0.707,0.488,1.364,0.805,2.083,1.001
			c3.397,7.144,6.583,17.791,11.95,22.065c-1.367-7.543-4.959-14.685-6.336-21.968c0.139-0.011,0.266-0.021,0.411-0.032
			c0.707-0.058,1.396-0.143,2.071-0.253c1.642,0.444,3.013,1.713,4.267,2.928c-0.024-1.541-0.077-2.838-0.177-4.008
			c3.186-1.202,5.991-3.203,8.525-6.155C404.688,425.562,403.549,416.928,403.498,409.002z"/>
		<path fill="#020202" d="M365.741,307.197c1.459-0.54,2.782-1.048,3.792-1.36C368.561,306.012,367.218,306.5,365.741,307.197z"/>
	</g>
</g>
</svg>
